<svg width="72" height="80" viewBox="0 0 72 80" fill="none" xmlns="http://www.w3.org/2000/svg">
<path fill-rule="evenodd" clip-rule="evenodd" d="M70.6249 57.8532L68.4492 61.5385H39.9037V47.9417H47.5909L47.9961 47.2189L47.7408 46.748L47.3911 46.0963L35.3524 24.2419L23.3136 46.0963L23.0139 46.6439L22.6864 47.2189L23.1138 47.9417H30.851V61.5385H2.5053L0.157498 57.4972L32.9269 0H37.6502L70.6249 57.8532Z" fill="#F8FAFC"/>
<path d="M3.38244 72.7446H9.32008V75.5692H3.38244V72.7446ZM3.6398 80H0V67.0769H10.0922V69.9015H3.6398V80Z" fill="#F8FAFC"/>
<path d="M15.2872 80V67.0769H18.927V77.1015H25.0668V80H15.2872Z" fill="#F8FAFC"/>
<path d="M33.3456 72.08H39.32V74.8123H33.3456V72.08ZM33.6029 77.1754H40.331V80H29.9999V67.0769H40.092V69.9015H33.6029V77.1754Z" fill="#F8FAFC"/>
<path d="M49.1892 72.08H55.1637V74.8123H49.1892V72.08ZM49.4466 77.1754H56.1747V80H45.8436V67.0769H55.9357V69.9015H49.4466V77.1754Z" fill="#F8FAFC"/>
<path d="M64.4263 80V69.9754H60.474V67.0769H72V69.9754H68.0661V80H64.4263Z" fill="#F8FAFC"/>
</svg>
